<svg version="1.1" id="Layer_1" x="0px" y="0px" viewBox="0 0 170 170" style="enable-background:new 0 0 170 170;"><title>Artboard 2</title><g><circle fill="#E50069" cx="85" cy="85" r="85"/><g><path fill="#FFFFFF" d="M108.8,30H61.2c-16.9,0-30.7,13.8-30.7,30.7v48.5c0,16.9,13.8,30.7,30.7,30.7h47.6
c16.9,0,30.7-13.8,30.7-30.7V60.7C139.5,43.8,125.7,30,108.8,30z M42.7,60.7c0-10.2,8.3-18.5,18.5-18.5h47.6
c10.2,0,18.5,8.3,18.5,18.5v48.5c0,10.2-8.3,18.5-18.5,18.5H61.2c-10.2,0-18.5-8.3-18.5-18.5V60.7z"/><path fill="#FFFFFF" d="M86.5,114C86.5,114,86.5,114,86.5,114c7.8,0,15.1-3,20.6-8.5c5.5-5.5,8.5-12.8,8.5-20.6
c0-16.1-13.1-29.1-29.1-29.1c0,0,0,0,0,0c-16.1,0-29.1,13.1-29.1,29.1C57.4,100.9,70.5,114,86.5,114z M69.6,84.9
c0-9.3,7.6-16.9,16.9-16.9c9.3,0,16.9,7.6,16.9,16.9s-7.6,16.9-16.9,16.9S69.6,94.2,69.6,84.9z"/><path fill="#FFFFFF" d="M115,64.4c4.1,0,7.5-3.3,7.5-7.5c0-4.1-3.3-7.5-7.5-7.5c-4.1,0-7.4,3.3-7.5,7.4c0,2,0.8,3.9,2.2,5.3
S113,64.4,115,64.4z"/></g></g></svg>
